<svg width="58" height="32" viewBox="0 0 58 32" fill="none" xmlns="http://www.w3.org/2000/svg">
<path d="M28.9971 1.35803V7.61161C26.2415 3.13519 21.3518 0.156494 15.7691 0.156494C7.1612 0.156494 0.181396 7.25395 0.181396 16C0.181396 24.7461 7.1612 31.8435 15.7746 31.8435C21.3518 31.8435 26.247 28.8648 29.0026 24.3884V30.642H57.8239V1.35803H28.9971Z" fill="#2A0062"/>
<path d="M10.3899 19.3196C12.282 19.3196 13.5415 18.1851 13.5415 16.6539C13.5415 15.1952 12.579 14.4128 10.7749 14.0496C9.70238 13.8428 8.62434 13.4796 8.62434 12.591C8.62434 12.0098 9.15236 11.5124 10.1039 11.5124C11.0554 11.5124 11.897 11.9651 11.897 12.6636C11.897 12.8369 11.853 12.9542 11.809 13.0995L13.096 13.5522C13.239 13.2896 13.3435 12.971 13.3435 12.6022C13.3435 11.1603 12.04 10.1711 10.2359 10.1711C8.44283 10.1711 7.27128 11.3056 7.27128 12.5854C7.27128 14.2173 8.45933 14.9885 10.3074 15.2958C11.6825 15.5473 12.1115 16.0224 12.1115 16.693C12.1115 17.4195 11.468 17.9616 10.4064 17.9616C9.42187 17.9616 8.51433 17.5257 8.51433 16.6371C8.51433 16.4918 8.54183 16.3297 8.58584 16.1565L7.29878 15.62C7.16677 15.8715 7.05127 16.2291 7.05127 16.598C7.06227 18.241 8.32732 19.3196 10.3899 19.3196Z" fill="white"/>
<path d="M14.5647 11.4285C14.5647 11.9091 14.9222 12.2724 15.3952 12.2724C15.8683 12.2724 16.2423 11.9091 16.2423 11.4285C16.2423 10.9479 15.8738 10.5679 15.3952 10.5679C14.9277 10.5679 14.5647 10.9479 14.5647 11.4285Z" fill="white"/>
<path d="M16.0553 13.1722H14.7517V19.1855H16.0553V13.1722Z" fill="white"/>
<path d="M20.1144 18.0399C19.1518 18.0399 18.4093 17.3581 18.4093 16.2068C18.4093 14.9382 19.1573 14.1838 20.1144 14.1838C21.0879 14.1838 21.8195 14.9997 21.8195 16.1174C21.814 17.2407 21.0714 18.0399 20.1144 18.0399ZM21.759 13.1611V13.977C21.3904 13.407 20.8239 13.0437 19.8834 13.0437C18.3213 13.0437 17.0728 14.2955 17.0728 16.2012C17.0728 18.0343 18.2608 19.1855 19.7514 19.1855C20.7524 19.1855 21.4399 18.7496 21.7425 18.1069V18.7496C21.7425 19.8841 21.3134 20.6832 20.1804 20.6832C19.3609 20.6832 18.7448 20.2641 18.5578 19.4482L17.3698 19.9567C17.7988 21.2812 18.8053 21.8345 20.1804 21.8345C22.056 21.8345 23.046 20.5268 23.046 18.6881V13.1555H21.759V13.1611Z" fill="white"/>
<path d="M25.7135 15.8268C25.7135 14.765 26.346 14.1782 27.1161 14.1782C27.8476 14.1782 28.3316 14.7147 28.3316 15.7094V19.1911H29.6352V15.2568C29.6352 13.8429 28.7606 13.0437 27.5561 13.0437C26.8245 13.0437 26.137 13.3231 25.6915 14.0441V13.1666H24.3879V19.1799H25.6915V15.8156L25.7135 15.8268Z" fill="white"/>
<path d="M34.558 16.1341C34.558 14.8097 35.493 14.1837 36.3071 14.1837C37.1816 14.1837 37.8141 14.737 37.9296 15.6256L39.1177 15.2511C38.8702 13.854 37.7426 13.0381 36.3071 13.0381C34.6845 13.0381 33.3149 14.2899 33.3149 16.1397C33.3149 18.0454 34.5635 19.314 36.4941 19.314C37.9296 19.314 39.1177 18.4813 39.4312 16.8998L38.2432 16.4639C38.1111 17.3524 37.6106 18.1795 36.4391 18.1795C35.504 18.174 34.558 17.3971 34.558 16.1341Z" fill="white"/>
<path d="M43.0834 18.1236C42.1484 18.1236 41.3233 17.3803 41.3233 16.2011C41.3233 15.022 42.1429 14.234 43.0834 14.234C43.9579 14.234 44.86 14.9773 44.86 16.2011C44.8435 17.425 43.9469 18.1236 43.0834 18.1236ZM44.805 13.1554V14.1334C44.464 13.4516 43.7599 13.0269 42.8139 13.0269C41.1693 13.0269 40.0198 14.3513 40.0198 16.2011C40.0198 17.9783 41.1968 19.3028 42.8139 19.3028C43.7159 19.3028 44.4035 18.9284 44.8765 18.1683V19.1854H46.125V13.1554H44.805Z" fill="white"/>
<path d="M50.2501 19.3084C51.3667 19.3084 52.1257 18.6098 52.2412 17.4027L50.9926 17.1512C50.9486 17.8497 50.6736 18.1683 50.1731 18.1683C49.8046 18.1683 49.4251 17.9168 49.4251 17.3356V14.3066H51.6747V13.1554H49.4251V11.2329H48.127V13.1554H46.939V14.2898H48.127V17.2685C48.116 18.4757 48.8035 19.3084 50.2501 19.3084Z" fill="white"/>
<path d="M30.7959 11.4285C30.7959 11.9091 31.1534 12.2724 31.6264 12.2724C32.0995 12.2724 32.4735 11.9091 32.4735 11.4285C32.4735 10.9479 32.105 10.5679 31.6264 10.5679C31.1534 10.5679 30.7959 10.9479 30.7959 11.4285Z" fill="white"/>
<path d="M32.2865 13.1722H30.9829V19.1855H32.2865V13.1722Z" fill="white"/>
</svg>
