<?xml version="1.0" encoding="UTF-8"?>
<svg width="170px" height="40px" viewBox="0 0 170 40" version="1.1" xmlns="http://www.w3.org/2000/svg" xmlns:xlink="http://www.w3.org/1999/xlink">
    <!-- Generator: Sketch 51.2 (57519) - http://www.bohemiancoding.com/sketch -->
    <title>LOGO White</title>
    <desc>Created with Sketch.</desc>
    <defs></defs>
    <g id="Symbols" stroke="none" stroke-width="1" fill="none" fill-rule="evenodd">
        <g id="//HEADER" transform="translate(-241.000000, -31.000000)" fill="#FFFFFF">
            <g id="HEADER">
                <g id="LOGO-White" transform="translate(241.000000, 31.000000)">
                    <g id="Logo-white">
                        <path d="M117.215,20.1876831 C116.994785,21.0491908 116.655831,21.8557754 116.207031,22.5849446 C115.760846,23.3125446 115.188077,23.9224523 114.505985,24.3979292 C113.839585,24.8645138 113.022015,25.1009446 112.077338,25.1009446 C111.487831,25.1009446 110.968415,24.9973754 110.5306,24.7918062 C110.086508,24.5878062 109.710938,24.3105754 109.413831,23.9669138 C109.113062,23.6248215 108.882908,23.2210062 108.730692,22.7659292 C108.577954,22.3098062 108.501062,21.8207292 108.501062,21.3133446 C108.501062,20.56796 108.612477,19.7582369 108.833215,18.9082369 C109.051862,18.0603292 109.384015,17.2657754 109.821308,16.5465446 C110.251277,15.8362062 110.8162,15.2336215 111.500908,14.7544831 C112.173062,14.2852831 112.978077,14.0478062 113.892415,14.0478062 C115.233062,14.0478062 116.184538,14.3789138 116.719646,15.0322369 C117.267308,15.7038677 117.545062,16.6234369 117.545062,17.7668831 C117.545062,18.5127908 117.434169,19.3272215 117.215,20.1876831 Z M96.6727231,21.9321446 C96.2521692,22.9939908 95.387,23.9224523 94.7049077,24.3984523 C94.0379846,24.8645138 93.2209385,25.1014677 92.2762615,25.1014677 C91.6862308,25.1014677 91.1668154,24.9973754 90.7295231,24.7918062 C90.2854308,24.5878062 89.9098615,24.3105754 89.6127538,23.9669138 C89.3114615,23.6253446 89.0818308,23.2210062 88.9296154,22.7659292 C88.7768769,22.3098062 88.6994615,21.8212523 88.6994615,21.3133446 C88.6994615,20.56796 88.8114,19.75876 89.0316154,18.9082369 C89.2502615,18.0603292 89.5829385,17.2657754 90.0202308,16.5465446 C90.4496769,15.8362062 91.0151231,15.2330985 91.6993077,14.7544831 C92.3719846,14.2852831 93.177,14.0472831 94.0913385,14.0472831 C95.4314615,14.0472831 96.3829385,14.3794369 96.9185692,15.0322369 C97.4662308,15.7038677 97.7439846,16.62396 97.7439846,17.7668831 L103.0642,17.70516 C102.728385,18.8522677 102.555769,20.0610985 102.555769,21.3133446 C102.555769,21.5157754 102.562569,21.7145446 102.571985,21.9117446 L96.6727231,21.9321446 Z M120.844631,11.6798369 C120.012938,11.0296523 119.005492,10.5348215 117.851062,10.2094677 C116.703431,9.88620615 115.436015,9.72248308 114.083862,9.72248308 C112.317431,9.72248308 110.7006,10.0316215 109.276785,10.6410062 C107.862385,11.2503908 106.640477,12.0941138 105.644538,13.1481138 C104.792969,14.0478062 104.105123,15.0908215 103.591462,16.2541446 C103.483708,15.4914985 103.285985,14.7952831 102.999862,14.1733446 C102.541646,13.1768831 101.883092,12.3378677 101.043554,11.6798369 C100.211862,11.0296523 99.2044154,10.5348215 98.0499846,10.2089446 C96.9023538,9.88620615 95.6349385,9.72248308 94.2827846,9.72248308 C93.6414923,9.72248308 91.8175231,9.57131385 86.4340154,10.10276 C84.7042,10.2738062 83.3468154,10.5949754 82.0359846,11.2409754 C81.1561692,11.6746062 79.9598923,12.32636 79.3719538,13.0393138 L80.0268462,10.40876 L74.1186923,10.40876 L69.8242308,28.8404215 L75.9599231,28.8404215 L77.7671538,21.0481446 C77.9476154,20.3074677 78.1882308,19.5882369 78.4822,18.9118985 C78.7683231,18.2528215 79.1616769,17.6502369 79.6523231,17.1229754 C80.1393077,16.6040831 80.7455538,16.1877138 81.4538,15.8853754 C82.1646615,15.5814677 83.0512769,15.42716 84.0869692,15.42716 C84.1230615,15.42716 84.1596769,15.4292523 84.1957692,15.4297754 C83.9514923,15.8796215 83.7349385,16.3488215 83.5492462,16.8394677 L83.5492462,16.8399908 C83.0219846,18.2366062 82.7546923,19.7420215 82.7546923,21.3133446 C82.7546923,23.9878369 83.6120154,26.21876 85.3036462,27.5698677 C86.9774923,28.9052831 89.2345692,29.5821446 92.0110615,29.5821446 C93.8308462,29.5821446 95.4790615,29.2782369 96.9075846,28.68036 C98.3376769,28.0850985 99.5731846,27.0588215 100.581677,26.0042985 C101.369954,25.1773138 102.117431,24.0071908 102.659862,22.8574677 C102.932908,24.8420215 103.751,26.4881446 105.104723,27.5698677 C106.778569,28.90476 109.035646,29.5821446 111.812662,29.5821446 C113.632446,29.5821446 115.280138,29.2782369 116.708662,28.68036 C118.138754,28.0850985 119.374785,27.0588215 120.382754,26.0048215 C121.389677,24.9476831 122.168538,23.6922985 122.696323,22.2731908 C123.223062,20.85356 123.490877,19.3146677 123.490877,17.6978369 C123.490877,16.3540523 123.258631,15.1682369 122.800938,14.1733446 C122.342723,13.17636 121.684169,12.3378677 120.844631,11.6798369 Z" id="Fill-1"></path>
                        <path d="M62.8361846,21.78448 C62.6818769,22.2494954 62.4841538,22.7207877 62.2492923,23.1863262 C62.0201846,23.6398338 61.7089538,24.0457415 61.3239692,24.3920185 C60.9368923,24.7430031 60.4504308,25.0369723 59.8802769,25.2655569 C59.3075077,25.4920492 58.5903692,25.6066031 57.7487385,25.6066031 C56.9688308,25.6066031 56.2741846,25.44968 55.6846769,25.1405415 C55.1495692,24.8586031 54.8890769,24.4521723 54.8890769,23.8971877 C54.8890769,23.40968 54.9947385,23.0074338 55.2024,22.7019569 C55.4205231,22.3834031 55.7050769,22.1307569 56.0471692,21.9508185 C56.4175077,21.7557108 56.8459077,21.6097723 57.3224308,21.5161415 C57.8172615,21.4141415 58.3345846,21.3409108 58.8519077,21.2980185 C59.6867385,21.2530338 60.5299385,21.1886954 61.3584923,21.1076185 C62.0003077,21.0469415 62.6180615,20.9015262 63.2023385,20.6734646 L62.8361846,21.78448 Z M67.8148308,27.6366646 C67.8148308,27.2930031 67.8347077,26.8907569 67.8749846,26.4398646 C67.9116,26.0036185 67.9811692,25.6270031 68.0873538,25.3037415 L69.9400923,18.1700185 C70.2403385,17.0066954 70.3925538,15.9804185 70.3920308,15.1262338 C70.4202769,14.0502646 70.1310154,13.1704492 69.5331385,12.5108492 C68.9551385,11.8747877 68.2087077,11.3768185 67.3137231,11.0310646 C66.4339077,10.6926338 65.4620308,10.4619569 64.4226769,10.3442646 C63.3739077,10.2297108 62.3753538,10.1716492 61.4536923,10.1716492 C61.3082769,10.1716492 61.1633846,10.1779262 61.0179692,10.1805415 L61.0106462,10.1716492 L46.2201231,10.3662338 L40.2021231,22.2039877 L39.5671077,10.3725108 L33.5140615,10.3725108 L27.7016308,22.2923877 L26.9714154,10.3348492 L10.8747692,10.0931877 C9.33064615,10.0670338 7.92723077,10.18368 6.52643077,10.40808 C5.41436923,10.5911569 4.40587692,10.90448 3.53024615,11.3391569 C2.62950769,11.7874338 1.89249231,12.40728 1.33907692,13.18248 C0.780953846,13.9718031 0.498492308,14.9860492 0.498492308,16.1969723 C0.498492308,17.0417415 0.706153846,17.7688185 1.11572308,18.35728 C1.51169231,18.9300492 2.0468,19.4154646 2.70587692,19.79888 C3.34664615,20.1692185 4.08418462,20.4705108 4.89756923,20.6938646 C5.712,20.9177415 6.54421538,21.1118031 7.37433846,21.2723877 C9.38452308,21.63488 10.9861846,22.0062646 12.1353846,22.3755569 C13.1449231,22.7009108 13.6575385,23.1701108 13.6575385,23.7695569 C13.6575385,24.1461723 13.5602462,24.4448492 13.3599077,24.6828492 C13.1438769,24.9391569 12.8697846,25.1478646 12.546,25.3026954 C12.2028615,25.4658954 11.8184,25.5867262 11.4015077,25.66048 C10.9752,25.7399877 10.5630154,25.7797415 10.1775077,25.7797415 C9.63926154,25.7797415 9.10781538,25.7227262 8.59676923,25.6092185 C8.10926154,25.50408 7.66935385,25.3356492 7.28907692,25.1086338 C6.9224,24.8878954 6.61849231,24.6007262 6.38572308,24.2560185 C6.15923077,23.9175877 6.04938462,23.5205723 6.04938462,23.04248 L6.04938462,22.75688 L0,22.75688 L0.0130769231,23.0550338 C0.068,24.3109415 0.406430769,25.3743569 1.01843077,26.2144185 C1.61892308,27.0419262 2.39987692,27.7182646 3.33984615,28.22408 C4.27458462,28.7262338 5.40913846,29.0557723 6.58658462,29.2660492 C7.76664615,29.4768492 8.98332308,29.5835569 10.2020923,29.5835569 C11.4051692,29.5835569 12.5998769,29.48208 13.7522154,29.2817415 C14.9291385,29.0803569 15.9224615,28.7581415 16.8320923,28.2606954 C17.7579385,27.7564492 18.5205846,27.0774954 19.0991077,26.2426646 C19.6818154,25.3978954 19.9773538,24.3438954 19.9773538,23.11048 C19.9773538,22.2222954 19.7707385,21.4627877 19.3627385,20.8523569 C18.9625846,20.2502954 18.4290462,19.7423877 17.7772923,19.34328 C17.1475077,18.9525415 16.4094462,18.6313723 15.5814154,18.3881415 C14.7811077,18.1574646 13.9488923,17.9576492 13.1093538,17.7944492 C12.3064308,17.6338646 11.5003692,17.4811262 10.7131385,17.3409415 C9.92852308,17.20128 9.23649231,17.0459262 8.6564,16.8801108 C8.08467692,16.7169108 7.61809231,16.5040185 7.2692,16.2466646 C6.96163077,16.0196492 6.81830769,15.7497415 6.81830769,15.3982338 C6.81830769,15.1042646 6.89833846,14.8793415 7.06153846,14.71248 C7.2488,14.5215569 7.47895385,14.3756185 7.74729231,14.2778031 C8.03132308,14.1705723 8.35353846,14.10048 8.70766154,14.0690954 C9.04870769,14.0345723 9.39341538,14.0173108 9.73184615,14.0173108 L9.75590769,14.0073723 L21.2301231,14.1810338 L23.0211385,28.9333723 L29.2478462,28.9333723 L35.1392615,16.8325108 L35.8025231,28.9333723 L42.1856308,28.9333723 L50.4784923,14.2145108 L61.5944,14.0073723 C61.8266462,14.0204492 62.0688308,14.0429415 62.3209538,14.0769415 C62.6970462,14.1271569 63.0652923,14.2291569 63.4136615,14.37928 C63.7337846,14.5205108 64.0057846,14.7166646 64.2228615,14.9630338 C64.4169231,15.18168 64.5147385,15.4871569 64.5147385,15.8705723 C64.5147385,16.3627877 64.3871077,16.7153415 64.124,16.9481108 C63.8420615,17.1997108 63.3906462,17.3974338 62.7812615,17.5350031 C62.1452,17.6788492 61.3255385,17.7866031 60.3468615,17.8561723 C59.3776,17.9215569 58.2294462,18.0230338 56.8364923,18.1663569 C54.2713231,18.4190031 52.2532923,19.0833108 50.8378462,20.1399262 C49.3852615,21.2190338 48.6487692,22.6794646 48.6487692,24.4814646 C48.6487692,25.1374031 48.7941846,25.7718954 49.0803077,26.3655877 C49.3632923,26.9629415 49.7880308,27.59168 50.3900923,28.0446646 C50.9827385,28.4871877 51.7474769,28.9349415 52.6152615,29.1907262 C53.4830462,29.4506954 54.5061846,29.5819877 55.6559077,29.5819877 C56.8830462,29.5819877 58.0892615,29.2085108 59.2421231,28.8470646 C60.1862769,28.55048 61.0226769,28.1116185 61.7361538,27.5383262 L61.7392923,28.8470646 L68.0889231,28.8470646 L68.0005231,28.5724492 C67.8770769,28.2146646 67.8148308,27.9002954 67.8148308,27.6366646 Z" id="Fill-3"></path>
                        <path d="M153.166286,3.01935692 L163.835486,3.01255692 L159.186902,9.15191077 L163.98404,15.23948 L152.70964,15.23948 L148.630686,9.18852615 L153.166286,3.01935692 Z M169.668317,18.4046185 L162.767886,9.26908 L169.714348,0.000156923077 L151.047302,0.000156923077 L144.54284,9.26384923 L151.256532,18.4046185 L169.668317,18.4046185 Z" id="Fill-5"></path>
                        <path d="M163.983883,36.0536523 L152.709483,36.0536523 L148.632098,30.0037446 L153.166129,23.8335292 L163.835852,23.8267292 L159.187268,29.9666062 L163.983883,36.0536523 Z M151.047668,20.8148523 L144.542683,30.0780215 L151.256375,39.2187908 L169.669206,39.2187908 L162.767729,30.0832523 L169.714714,20.8148523 L151.047668,20.8148523 Z" id="Fill-7"></path>
                        <path d="M140.495218,25.6804615 L129.221342,25.6804615 L134.017434,19.5923692 L129.368326,13.4540615 L140.038572,13.4598154 L144.573126,19.6300308 L140.495218,25.6804615 Z M142.157557,10.4411385 L123.490511,10.4411385 L130.436972,19.7105846 L123.536018,28.8445538 L141.948326,28.8445538 L148.662018,19.7048308 L142.157557,10.4411385 Z" id="Fill-10"></path>
                    </g>
                </g>
            </g>
        </g>
    </g>
</svg>